Description

Sinopse e detalhes

Peter Parker (Tobey Maguire) é um jovem estudioso que vive com seus tios, Ben (Cliff Robertson) e May (Rosemary Harris), desde que seus pais faleceram. Inteligente e com um grande interesse pela ciência, Peter tem dificuldade em se relacionar com seus colegas, por ser tímido e por eles o considerarem um nerd. Até que, em uma demonstração científica, um acidente inesperado faz com que aranha modificada geneticamente pique Peter. A partir de então seu corpo é quimicamente alterado pela picada da aranha, fazendo com que Peter possa escalar paredes e tetos, emitir pelos punhos um fluido ultra-resistente semelhante à uma teia de aranha e passe a ter um "sentido de aranha", que o avisa sempre que há perigo por perto, além de superforça e visão ampliada. Inicialmente Peter pensa em usar seus novos poderes para ganhar dinheiro, adotando o nome de Homem-Aranha e se apresentando em lutas de exibição. Porém, ao permitir que um ladrão fuja por não considerar sua função capturá-lo, o fugitivo acaba assassinando seu tio Ben. A partir de então, Peter decide não mais usar seus poderes para proveito próprio e sim para enfrentar o mal, tendo como seu primeiro grande desafio enfrentar o psicótico Duende Verde (Willem Dafoe), que na verdade é o empresário Norman Osborn após ter sido exposto à um gás experimental que lhe deu uma segunda personalidade e grande força física.

Format : Matroska
Format version : Version 2
File size : 1.56 GiB
Duration : 2h 1mn
Overall bit rate : 1 841 Kbps
Encoded date : UTC 2013-05-04 09:15:53
Writing application : mkvmerge v5.8.0 ('No Sleep / Pillow') built on Sep 2 2012 15:37:04
Writing library : libebml v1.2.3 + libmatroska v1.3.0

Video
ID : 1
Format : AVC
Format/Info : Advanced Video Codec
Format profile : High@L4.1
Format settings, CABAC : Yes
Format settings, ReFrames : 4 frames
Muxing mode : Header stripping
Codec ID : V_MPEG4/ISO/AVC
Duration : 2h 1mn
Bit rate : 908 Kbps
Width : 720 pixels
Height : 480 pixels
Display aspect ratio : 1.85:1
Frame rate mode : Constant
Frame rate : 23.976 fps
Standard : NTSC
Color space : YUV
Chroma subsampling : 4:2:0
Bit depth : 8 bits
Scan type : Progressive
Bits/(Pixel*Frame) : 0.110
Stream size : 788 MiB (49%)
Title : Homem - Aranha1 ( by fantasma )
Writing library : x264 core 130 r2273 b3065e6
Encoding settings : cabac=1 / ref=3 / deblock=1:0:0 / analyse=0x3:0x113 / me=hex / subme=7 / psy=1 / psy_rd=1.00:0.00 / mixed_ref=1 / me_range=16 / chroma_me=1 / trellis=1 / 8x8dct=1 / cqm=0 / deadzone=21,11 / fast_pskip=1 / chroma_qp_offset=-2 / threads=3 / lookahead_threads=1 / sliced_threads=0 / nr=0 / decimate=1 / interlaced=0 / bluray_compat=0 / constrained_intra=0 / bframes=3 / b_pyramid=2 / b_adapt=1 / b_bias=0 / direct=1 / weightb=1 / open_gop=0 / weightp=2 / keyint=240 / keyint_min=23 / scenecut=40 / intra_refresh=0 / rc_lookahead=40 / rc=crf / mbtree=1 / crf=23.0 / qcomp=0.60 / qpmin=0 / qpmax=69 / qpstep=4 / vbv_maxrate=62500 / vbv_bufsize=78125 / crf_max=0.0 / nal_hrd=none / ip_ratio=1.40 / aq=1:1.00
Language : Portuguese
Default : Yes
Forced : No

Audio #1
ID : 2
Format : AC-3
Format/Info : Audio Coding 3
Mode extension : CM (complete main)
Format settings, Endianness : Big
Muxing mode : Header stripping
Codec ID : A_AC3
Duration : 2h 1mn
Bit rate mode : Constant
Bit rate : 448 Kbps
Channel(s) : 6 channels
Channel positions : Front: L C R, Side: L R, LFE
Sampling rate : 48.0 KHz
Bit depth : 16 bits
Compression mode : Lossy
Stream size : 388 MiB (24%)
Title : by fantasma
Language : Portuguese
Default : Yes
Forced : No

Audio #2
ID : 3
Format : AC-3
Format/Info : Audio Coding 3
Mode extension : CM (complete main)
Format settings, Endianness : Big
Muxing mode : Header stripping
Codec ID : A_AC3
Duration : 2h 1mn
Bit rate mode : Constant
Bit rate : 448 Kbps
Channel(s) : 6 channels
Channel positions : Front: L C R, Side: L R, LFE
Sampling rate : 48.0 KHz
Bit depth : 16 bits
Compression mode : Lossy
Stream size : 388 MiB (24%)
Title : by fantasma
Language : English
Default : No
Forced : No

Text #1
ID : 4
Format : VobSub
Muxing mode : zlib
Codec ID : S_VOBSUB
Codec ID/Info : The same subtitle format used on DVDs
Title : by fantasma
Language : English
Default : No
Forced : No

Text #2
ID : 5
Format : VobSub
Muxing mode : zlib
Codec ID : S_VOBSUB
Codec ID/Info : The same subtitle format used on DVDs
Title : by fantasma
Language : Portuguese
Default : No
Forced : No

Text #3
ID : 6
Format : UTF-8
Codec ID : S_TEXT/UTF8
Codec ID/Info : UTF-8 Plain Text
Title : Credito
Language : Portuguese
Default : Yes
Forced : No

Menu
00:00:00.000 : en:Chapter 01
00:06:29.300 : en:Chapter 02
00:09:30.800 : en:Chapter 03
00:14:55.467 : en:Chapter 04
00:17:47.368 : en:Chapter 05
00:21:52.468 : en:Chapter 06
00:23:27.202 : en:Chapter 07
00:25:17.469 : en:Chapter 08
00:34:33.036 : en:Chapter 09
00:40:19.971 : en:Chapter 10
00:41:40.538 : en:Chapter 11
00:43:11.472 : en:Chapter 12
00:44:37.340 : en:Chapter 13
00:54:29.707 : en:Chapter 14
00:55:49.041 : en:Chapter 15
01:00:45.476 : en:Chapter 16
01:04:17.143 : en:Chapter 17
01:05:53.310 : en:Chapter 18
01:12:07.677 : en:Chapter 19
01:14:14.645 : en:Chapter 20
01:15:44.279 : en:Chapter 21
01:19:30.980 : en:Chapter 22
01:22:01.547 : en:Chapter 23
01:25:08.515 : en:Chapter 24
01:30:34.015 : en:Chapter 25
01:39:31.015 : en:Chapter 26
01:45:02.315 : en:Chapter 27
01:50:26.183 : en:Chapter 28